<?xml version="1.0" encoding="UTF-8" standalone="no"?><!DOCTYPE svg PUBLIC "-//W3C//DTD SVG 1.1//EN" "http://www.w3.org/Graphics/SVG/1.1/DTD/svg11.dtd"><svg width="100%" height="100%" viewBox="0 0 3000 3000" version="1.1" xmlns="http://www.w3.org/2000/svg" xmlns:xlink="http://www.w3.org/1999/xlink" xml:space="preserve" xmlns:serif="http://www.serif.com/" style="fill-rule:evenodd;clip-rule:evenodd;stroke-linejoin:round;stroke-miterlimit:2;"><path d="M2458.11,536.915c-0,-33.541 -27.231,-60.771 -60.771,-60.771l-466.345,-0c-33.541,-0 -60.771,27.23 -60.771,60.771l0,2402.31c0,33.541 27.23,60.771 60.771,60.771l466.345,-0c33.54,-0 60.771,-27.23 60.771,-60.771l-0,-2402.31Z" style="fill:#4db2e0;"/><path d="M1129.78,60.771c-0,-33.541 -27.23,-60.771 -60.771,-60.771l-466.345,0c-33.54,0 -60.771,27.23 -60.771,60.771l0,2558.32c0,33.54 27.231,60.771 60.771,60.771l466.345,-0c33.541,-0 60.771,-27.231 60.771,-60.771l-0,-2558.32Z" style="fill:#4db2e0;"/><path d="M1793.67,900.684c-0,-33.264 -27.007,-60.271 -60.271,-60.271l-462.507,0c-33.265,0 -60.271,27.007 -60.271,60.271l-0,1438.47c-0,33.264 27.006,60.271 60.271,60.271l462.507,-0c33.264,-0 60.271,-27.007 60.271,-60.271l-0,-1438.47Z" style="fill:#4db2e0;"/></svg>