<?xml version="1.0" encoding="UTF-8" standalone="no"?><!DOCTYPE svg PUBLIC "-//W3C//DTD SVG 1.1//EN" "http://www.w3.org/Graphics/SVG/1.1/DTD/svg11.dtd"><svg width="100%" height="100%" viewBox="0 0 3000 3000" version="1.1" xmlns="http://www.w3.org/2000/svg" xmlns:xlink="http://www.w3.org/1999/xlink" xml:space="preserve" xmlns:serif="http://www.serif.com/" style="fill-rule:evenodd;clip-rule:evenodd;stroke-linejoin:round;stroke-miterlimit:2;"><path d="M3000,750c0,-413.936 -336.064,-750 -750,-750l-1500,0c-413.936,0 -750,336.064 -750,750l0,1500c0,413.936 336.064,750 750,750l1500,0c413.936,0 750,-336.064 750,-750l0,-1500Z" style="fill:#1e2236;"/><path d="M2238.07,758.096c-0,-25.837 -20.977,-46.814 -46.814,-46.814l-359.245,-0c-25.838,-0 -46.814,20.977 -46.814,46.814l-0,1850.6c-0,25.838 20.976,46.814 46.814,46.814l359.245,0c25.837,0 46.814,-20.976 46.814,-46.814l-0,-1850.6Z" style="fill:#fff;"/><path d="M1214.8,391.303c0,-25.838 -20.976,-46.814 -46.814,-46.814l-359.245,-0c-25.837,-0 -46.814,20.976 -46.814,46.814l0,1970.78c0,25.837 20.977,46.814 46.814,46.814l359.245,0c25.838,0 46.814,-20.977 46.814,-46.814l0,-1970.78Z" style="fill:#fff;"/><path d="M1726.23,1038.32c-0,-25.625 -20.804,-46.429 -46.429,-46.429l-356.289,0c-25.625,0 -46.429,20.804 -46.429,46.429l0,1108.12c0,25.625 20.804,46.429 46.429,46.429l356.289,-0c25.625,-0 46.429,-20.804 46.429,-46.429l-0,-1108.12Z" style="fill:#fff;"/></svg>